# xmcd
#
# Track frame offsets: 
#        200
#        13737
#        29062
#        42195
#        54607
#        64282
#        77902
#        88070
#        99602
#        114360
#        125112
#        139412
#
# Disc length: 2038 seconds
#
# Revision: 2
# Processed by: cddbd v1.4PL0 Copyright (c) Steve Scherf et al.
# Submitted via: ExactAudioCopy v0.90b3
#
DISCID=b007f40c
DTITLE=Lynn Morris Band - The Bramble And The Rose
DYEAR=1992
DGENRE=Bluegrass
TTITLE0=Blue Skies and Teardrops
TTITLE1=Coat of Many Colors
TTITLE2=The Engineers Don't Wave From the Trains Anymore
TTITLE3=Why Tell Me Why
TTITLE4=Love Grown Cold
TTITLE5=The Bramble and The Rose
TTITLE6=I'll Pretend It's Raining
TTITLE7=Hey Porter
TTITLE8=New Patches
TTITLE9=My Younger Days
TTITLE10=Red Line to Shady Grove
TTITLE11=Heartstrings
EXTD=Lynn Morris, vocals, rhythm guitar, clawhammer banjo (track 3]\nM
EXTD=arshall Wilborn, bass, vocals\nTom Adams, banjo, vocals\nPeter mc
EXTD=Laughlin, mandolin, guitar, vocals\nStuart Duncan, fiddle\n\nRel.
EXTD=1992\n\nRounder: CD 0288
EXTT0=
EXTT1=
EXTT2=
EXTT3=
EXTT4=
EXTT5=
EXTT6=
EXTT7=
EXTT8=
EXTT9=
EXTT10=
EXTT11=
PLAYORDER=
